<svg xmlns="http://www.w3.org/2000/svg" viewBox="7.89 6.07 56.24 57.47"><path fill="#9b9b9a" d="m27.447 62.537.083-22.913c-3.694 1.075-6.616 5.563-7.076 11.82-.48 6.516 3.432 10.108 6.993 11.093ZM44.716 39.53l-.16 22.912c1.026-.369 2.772-.836 4.603-2.856 1.997-1.962 2.69-5.37 2.496-8.49-.17-2.719-.822-5.428-2.058-7.295-2.132-3.383-3.875-3.862-4.881-4.272Z"/><path fill="#d0cfce" d="m44.586 39.446-3.731 1.193-1.451 4.449-.156 13.375 1.782 2.989 3.547.924.009-22.93ZM32.365 57.728l.166-13.811-1.363-3.277c-.277-.143-3.362-.964-3.362-.964-.13.206-.063 22.9-.063 22.9l3.268-.997s1.442-2.482 1.355-3.85Z"/><path fill="#d0cfce" d="M60.833 48.3C67.804 31.367 57.75 18.15 55.6 15.558c-1.039-1.254-9.822-8.66-20.152-8.434-8.947.197-18.915 7.465-22.096 12.355C7.418 29.117 9.4 41.081 9.41 41.146c1.697 9.743 4.57 12.598 4.57 12.598s1.658-1.411.247-4.3c-.977-1.528-2.642-8.327-2.642-13.825 0-14.735 10.503-25.853 24.43-25.862 13.928.009 24.43 11.127 24.43 25.862 0 5.5-1.34 11.497-2.574 13.56-1.616 3.082.2 4.616.2 4.616.213-.262.95-2.52 2.762-5.495Z"/><g fill="none" stroke="#000" stroke-linecap="round" stroke-linejoin="round" stroke-width="2"><path d="M31.161 40.634a3.026 3.026 0 0 1 1.643 2.688v15.504c-.065 1.225.094 1.646-1.8 2.748M27.542 39.624s-6.354 1.785-7.068 11.489 6.973 11.424 6.973 11.424l.095-22.913ZM40.859 40.626a3.022 3.022 0 0 0-1.446 2.542l-.173 15.504a2.997 2.997 0 0 0 1.816 2.788M44.716 39.53s6.334 1.855 6.939 11.566c.605 9.71-7.1 11.346-7.1 11.346l.161-22.913Z"/><path d="M58.047 53.808c3.21-5.058 5.09-11.17 5.09-18.189 0-15.759-11.353-28.536-27.106-28.552v0H36v0C20.247 7.084 8.895 19.86 8.895 35.619c0 7.019 1.88 13.13 5.088 18.19"/><path d="M50.214 20.194c-3.133-4.444-8.167-7.312-14.189-7.318v-.001h-.02v0c-5.996.007-11.013 2.85-14.148 7.262"/></g></svg>